<?xml version="1.0" encoding="utf-8"?>
<!-- Generator: Adobe Illustrator 16.0.0, SVG Export Plug-In . SVG Version: 6.00 Build 0)  -->
<!DOCTYPE svg PUBLIC "-//W3C//DTD SVG 1.1//EN" "http://www.w3.org/Graphics/SVG/1.1/DTD/svg11.dtd">
<svg version="1.1" id="Layer_1" xmlns="http://www.w3.org/2000/svg" xmlns:xlink="http://www.w3.org/1999/xlink" x="0px" y="0px"
	 width="1400px" height="1400px" viewBox="0 0 1400 1400" enable-background="new 0 0 1400 1400" xml:space="preserve">
<rect y="0" fill="#FFFFFF" width="1400" height="1400"/>
<g>
	<defs>
		<path id="SVGID_1_" d="M1325.3,700c0,345.3-280,625.3-625.3,625.3S74.7,1045.3,74.7,700c0-345.3,280-625.3,625.3-625.3
			S1325.3,354.7,1325.3,700z"/>
	</defs>
	<clipPath id="SVGID_2_">
		<use xlink:href="#SVGID_1_"  overflow="visible"/>
	</clipPath>
	<g clip-path="url(#SVGID_2_)">
		<path fill="#A6E3FF" d="M1325.3,700c0-345.3-280-625.3-625.3-625.3S74.7,354.7,74.7,700c0,63.7,9.6,125.1,27.3,182.9h1196
			C1315.7,825.1,1325.3,763.7,1325.3,700z"/>
		<path fill="#FFFFFF" d="M1168.6,482.3H1140c-5.8,0-10.5-4.7-10.5-10.5c0-5.8,4.7-10.5,10.5-10.5h24.9c11,0,19.9-8.9,19.9-19.9
			c0-11-8.9-19.9-19.9-19.9H971.3c-11,0-19.9,8.9-19.9,19.9c0,11,8.9,19.9,19.9,19.9h47.5c5.8,0,10.5,4.7,10.5,10.5
			c0,5.8-4.7,10.5-10.5,10.5H889.9c-15.8,0-28.7,12.8-28.7,28.7c0,15.8,12.8,28.7,28.7,28.7h278.7c15.9,0,28.7-12.8,28.7-28.7
			C1197.3,495.2,1184.5,482.3,1168.6,482.3z"/>
		<path fill="#FFFFFF" d="M485.1,364.8h-65.6c-6.9,0-12.6-5.6-12.6-12.6c0-7,5.6-12.6,12.6-12.6h66.1c12.5,0,22.6-10.1,22.6-22.6
			c0-12.5-10.1-22.6-22.6-22.6H297.8c-12.5,0-22.6,10.1-22.6,22.6c0,12.5,10.1,22.6,22.6,22.6h47.8c6.9,0,12.6,5.6,12.6,12.6
			c0,6.9-5.6,12.6-12.6,12.6h-47.4c-19.7,0-35.7,16-35.7,35.7c0,19.7,16,35.7,35.7,35.7h186.8c19.7,0,35.7-16,35.7-35.7
			C520.8,380.8,504.8,364.8,485.1,364.8z"/>
		<path fill="#FFFFFF" d="M150.5,533.4c0-11.4,9.2-20.7,20.6-20.7c11.4,0,20.7,9.2,20.7,20.7c0,11.4-9.2,20.7-20.7,20.7
			C159.8,554.1,150.5,544.8,150.5,533.4z"/>
		<path fill="#FFFFFF" d="M377.6,533.4c0,10.1-8.2,18.3-18.3,18.3h-96c-10.1,0-18.3-8.2-18.3-18.3l0,0c0-10.1,8.2-18.4,18.3-18.4h96
			C369.3,515.1,377.6,523.3,377.6,533.4L377.6,533.4z"/>
		<path fill="#458954" d="M-40.8,845.1H92.1c-0.1-0.9-0.3-1.7-0.3-2.6c0-16,12.9-28.9,28.9-28.9h35.9c-0.3-2.4-0.6-4.8-0.6-7.3
			c0-28.9,23.4-52.3,52.3-52.3c19.3,0,36.1,10.5,45.2,26.1c7.6-9.2,19-15,31.9-15c1.7,0,3.3,0.1,5,0.3c9.5-22.3,31.6-38,57.4-38
			c20.2,0,38.1,9.7,49.6,24.6c5.1-2.2,10.6-3.5,16.5-3.5c22.8,0,41.3,18.5,41.3,41.3c0,0.1,0,0.2,0,0.2c1.5-0.1,3.1-0.2,4.6-0.2
			c17.4,0,32.6,9.7,40.3,24c15.4,0.7,27.6,13.3,27.6,28.8c0,0.9-0.2,1.7-0.3,2.6h2.5c10.6,0,19.3,8.6,19.3,19.3
			c0,10.6-8.6,19.3-19.3,19.3H-40.8c-10.7,0-19.3-8.6-19.3-19.3C-60.1,853.8-51.5,845.1-40.8,845.1z"/>
		<path fill="#458954" d="M766.1,883.8c-1.3-4.2-2-8.6-2-13.2c0-24.6,20-44.6,44.6-44.6c15.4,0,29,7.8,37,19.7
			c12.5-27.2,40-46.2,71.9-46.2c30.9,0,57.6,17.7,70.7,43.6c8.6-61.9,61.5-109.6,125.8-109.6c33.8,0,64.5,13.3,87.3,34.9
			c7.4-21.3,27.6-36.5,51.4-36.5c30.1,0,54.5,24.4,54.5,54.5c0,6.3-1.1,12.3-3.1,17.9c30.6,11,52.6,40.2,52.6,74.6
			c0,1.7-0.2,3.3-0.2,5H766.1z"/>
		<g>
			<polygon fill="#B0AEAF" points="957.2,1030.6 962.1,1018.2 447.7,1018.2 447.7,1026.9 			"/>
			<path fill="#C5C3C4" d="M962.1,1018.2l-4.9,12.4l-509.5-3.7v-8.7h-286c20.7,34.9,44.7,67.7,71.6,97.8h933.5
				c26.9-30.1,50.9-62.9,71.6-97.8H962.1z"/>
		</g>
		<path fill="#00AB90" d="M102,882.9c14.6,47.8,34.7,93.1,59.7,135.3h1076.6c25-42.2,45.1-87.5,59.7-135.3H102z"/>
		<g>
			<path fill="#C5C3C4" d="M700,1325.3c96.3,0,187.5-21.8,269-60.7H431C512.5,1303.5,603.7,1325.3,700,1325.3z"/>
			<path fill="#8C8C8C" d="M431,1264.6H969c68.4-32.6,129.8-77.3,181.7-131.3H249.3C301.2,1187.3,362.7,1232,431,1264.6z"/>
			<path fill="#A8A8A8" d="M233.3,1116c5.2,5.9,10.6,11.7,16,17.3h901.4c5.5-5.7,10.8-11.5,16-17.3H233.3z"/>
		</g>
		<g>
			<g>
				<polygon fill="#FF8170" points="740,321.2 740,430.2 797.5,430.2 797.5,325.4 				"/>
				<polygon fill="#EB7667" points="807.5,317.8 740,317.8 740,321.2 797.5,325.4 797.5,430.2 807.5,430.2 				"/>
			</g>
			<g>
				<polygon fill="#EBB49D" points="699.2,415.5 454.7,615.9 454.7,625.2 700,438.7 945.3,641.6 945.3,615.9 				"/>
				<polygon fill="#FFC4AB" points="700,438.7 454.7,625.2 454.7,1018.2 945.3,1018.2 945.3,641.6 				"/>
			</g>
			<polygon fill="#4683CC" points="417.6,615.9 454.7,615.9 699.2,415.5 945.3,615.9 976.1,615.9 981.6,615.9 700.3,388.7 			"/>
			<g>
				<path fill="#58A4FF" d="M983.2,615.9c-4.2,0-8.5-1.4-12-4.3L700,388.8L428.9,611.6c-8.1,6.6-20,5.5-26.6-2.6
					c-6.6-8.1-5.5-20,2.6-26.6L688,349.6c7-5.7,17-5.7,24,0l283.2,232.7c8.1,6.6,9.2,18.6,2.6,26.6
					C994,613.5,988.6,615.9,983.2,615.9z"/>
			</g>
			<rect x="454.7" y="972.1" fill="#EBB49D" width="490.6" height="10.7"/>
			<rect x="454.7" y="922.1" fill="#EBB49D" width="490.6" height="10.7"/>
			<rect x="454.7" y="872.2" fill="#EBB49D" width="490.6" height="10.7"/>
			<rect x="454.7" y="822.3" fill="#EBB49D" width="490.6" height="10.7"/>
			<rect x="454.7" y="772.4" fill="#EBB49D" width="490.6" height="10.7"/>
			<rect x="454.7" y="722.4" fill="#EBB49D" width="490.6" height="10.7"/>
			<rect x="454.7" y="672.5" fill="#EBB49D" width="490.6" height="10.7"/>
			<rect x="454.7" y="622.6" fill="#EBB49D" width="490.6" height="10.7"/>
			<rect x="509" y="572.6" fill="#EBB49D" width="371.1" height="10.7"/>
			<rect x="571.8" y="522.7" fill="#EBB49D" width="252" height="10.7"/>
			<rect x="633.7" y="472.8" fill="#EBB49D" width="125.1" height="10.7"/>
			<rect x="923.5" y="615.9" fill="#EBB49D" width="21.8" height="402.3"/>
			<g>
				<path fill="#BCBEC0" d="M740.7,317.8h66.4c6.5,0,11.7-5.3,11.7-11.7H729C729,312.5,734.2,317.8,740.7,317.8z"/>
				<path fill="#D9DBDE" d="M807.2,294.3h-66.4c-6.5,0-11.7,5.3-11.7,11.7h89.9C818.9,299.5,813.6,294.3,807.2,294.3z"/>
			</g>
			<rect x="513.3" y="602.5" fill="#EBB49D" width="174" height="250.5"/>
			<rect x="718.8" y="677.9" fill="#EBB49D" width="174" height="315.8"/>
			<rect x="516" y="605" fill="#75612B" width="166.9" height="244.2"/>
			<polygon fill="#D8E7FF" points="591.7,833 591.7,797.2 535.3,833 			"/>
			<polygon fill="#D8E7FF" points="530.1,776.9 530.1,817.2 591.7,778.1 591.7,737.8 			"/>
			<polygon fill="#D8E7FF" points="530.1,733.5 530.1,757.9 568.5,733.5 			"/>
			<polygon fill="#FFFFFF" points="530.1,833 535.3,833 591.7,797.2 591.7,778.1 530.1,817.2 			"/>
			<polygon fill="#FFFFFF" points="591.7,733.5 568.5,733.5 530.1,757.9 530.1,776.9 591.7,737.8 			"/>
			<polygon opacity="0.2" fill="#414042" points="591.7,827.3 535.8,827.3 535.8,733.5 530.1,733.5 530.1,827.3 530.1,833 
				530.1,833 535.8,833 535.8,833 591.7,833 			"/>
			<g>
				<polygon fill="#D8E7FF" points="591.7,720.7 591.7,684.8 535.3,720.7 				"/>
				<polygon fill="#D8E7FF" points="530.1,664.6 530.1,704.9 591.7,665.8 591.7,625.5 				"/>
				<polygon fill="#D8E7FF" points="530.1,621.2 530.1,645.6 568.5,621.2 				"/>
				<polygon fill="#FFFFFF" points="530.1,720.7 535.3,720.7 591.7,684.8 591.7,665.8 530.1,704.9 				"/>
				<polygon fill="#FFFFFF" points="591.7,621.2 568.5,621.2 530.1,645.6 530.1,664.6 591.7,625.5 				"/>
				<polygon opacity="0.2" fill="#414042" points="591.7,714.9 535.8,714.9 535.8,621.2 530.1,621.2 530.1,714.9 530.1,720.7 
					530.1,720.7 535.8,720.7 535.8,720.7 591.7,720.7 				"/>
			</g>
			<g>
				<polygon fill="#D8E7FF" points="668.7,720.7 668.7,684.8 612.3,720.7 				"/>
				<polygon fill="#D8E7FF" points="607.1,664.6 607.1,704.9 668.7,665.8 668.7,625.5 				"/>
				<polygon fill="#D8E7FF" points="607.1,621.2 607.1,645.6 645.5,621.2 				"/>
				<polygon fill="#FFFFFF" points="607.1,720.7 612.3,720.7 668.7,684.8 668.7,665.8 607.1,704.9 				"/>
				<polygon fill="#FFFFFF" points="668.7,621.2 645.5,621.2 607.1,645.6 607.1,664.6 668.7,625.5 				"/>
				<polygon opacity="0.2" fill="#414042" points="668.7,714.9 612.9,714.9 612.9,621.2 607.1,621.2 607.1,714.9 607.1,720.7 
					607.1,720.7 612.9,720.7 612.9,720.7 668.7,720.7 				"/>
			</g>
			<g>
				<polygon fill="#D8E7FF" points="668.7,833 668.7,797.2 612.3,833 				"/>
				<polygon fill="#D8E7FF" points="607.1,776.9 607.1,817.2 668.7,778.1 668.7,737.8 				"/>
				<polygon fill="#D8E7FF" points="607.1,733.5 607.1,757.9 645.5,733.5 				"/>
				<polygon fill="#FFFFFF" points="607.1,833 612.3,833 668.7,797.2 668.7,778.1 607.1,817.2 				"/>
				<polygon fill="#FFFFFF" points="668.7,733.5 645.5,733.5 607.1,757.9 607.1,776.9 668.7,737.8 				"/>
				<polygon opacity="0.2" fill="#414042" points="668.7,827.3 612.9,827.3 612.9,733.5 607.1,733.5 607.1,827.3 607.1,833 
					607.1,833 612.9,833 612.9,833 668.7,833 				"/>
			</g>
			<g>
				<rect x="724.1" y="683.7" fill="#75612B" width="163.4" height="289.7"/>
				<rect x="739" y="698.5" fill="#57481F" width="133.7" height="274.9"/>
				<rect x="757.8" y="718.9" fill="#75612B" width="96.1" height="108.7"/>
				<rect x="757.8" y="844.3" fill="#75612B" width="96.1" height="108.7"/>
				<polygon fill="#473A19" points="853.9,715.9 853.9,827.6 757.8,827.6 757.8,830.7 853.9,830.7 857,830.7 857,827.6 857,715.9 
									"/>
				<polygon fill="#473A19" points="853.9,841.3 853.9,949.9 757.8,949.9 757.8,953 853.9,953 857,953 857,949.9 857,841.3 				"/>
				<rect x="757.8" y="841.3" fill="#8A7133" width="96.1" height="3"/>
				<rect x="757.8" y="715.9" fill="#8A7133" width="96.1" height="3"/>
				<rect x="739" y="698.5" fill="#473A19" width="3.8" height="274.9"/>
				<path fill="#DBB361" d="M868.4,835.9c0,5-4.1,9.1-9.1,9.1c-5,0-9.1-4.1-9.1-9.1s4.1-9.1,9.1-9.1
					C864.4,826.8,868.4,830.9,868.4,835.9z"/>
				<path fill="#FFD070" d="M860.8,835.1c0,2.2-1.8,4-4,4c-2.2,0-4-1.8-4-4s1.8-4,4-4C859,831.1,860.8,832.9,860.8,835.1z"/>
			</g>
			<rect x="689.8" y="973.4" fill="#F1F2F2" width="232" height="22.4"/>
			<rect x="665" y="995.8" fill="#F1F2F2" width="281.7" height="22.4"/>
			<polygon fill="#D3D4D4" points="921.8,986.2 689.8,991.3 689.8,995.8 921.8,995.8 			"/>
			<polygon fill="#D3D4D4" points="946.7,1006.4 665,1013.7 665,1018.2 946.7,1018.2 			"/>
		</g>
		<path fill="#00AB90" d="M454.7,1018.2c0,12.8-10.3,23.1-23.1,23.1H119.8c-12.8,0-23.1-10.3-23.1-23.1l0,0
			c0-12.8,10.3-23.1,23.1-23.1h311.8C444.4,995.1,454.7,1005.5,454.7,1018.2L454.7,1018.2z"/>
		<path fill="#00AB90" d="M1303.3,1018.2c0,12.8-10.3,23.1-23.1,23.1H968.4c-12.8,0-23.1-10.3-23.1-23.1l0,0
			c0-12.8,10.3-23.1,23.1-23.1h311.8C1293,995.1,1303.3,1005.5,1303.3,1018.2L1303.3,1018.2z"/>
		<path fill="#B0AEAF" d="M454.7,1082.4c0-4.6-3.7-8.4-8.4-8.4H262.9c-4.6,0-8.4,3.7-8.4,8.4l0,0c0,4.6,3.7,8.4,8.4,8.4h183.4
			C451,1090.7,454.7,1087,454.7,1082.4L454.7,1082.4z"/>
		<path fill="#B0AEAF" d="M552.3,1082.4c0-4.6-3.7-8.4-8.4-8.4h-46.4c-4.6,0-8.4,3.7-8.4,8.4l0,0c0,4.6,3.7,8.4,8.4,8.4H544
			C548.6,1090.7,552.3,1087,552.3,1082.4L552.3,1082.4z"/>
		<path fill="#B0AEAF" d="M887.6,1082.4c0,4.6-3.7,8.4-8.4,8.4H799c-4.6,0-8.4-3.7-8.4-8.4l0,0c0-4.6,3.7-8.4,8.4-8.4h80.2
			C883.8,1074,887.6,1077.7,887.6,1082.4L887.6,1082.4z"/>
		<path fill="#B0AEAF" d="M887.6,1049.7c0,4.6-3.7,8.4-8.4,8.4H732.5c-4.6,0-8.4-3.7-8.4-8.4l0,0c0-4.6,3.7-8.4,8.4-8.4h146.7
			C883.8,1041.3,887.6,1045.1,887.6,1049.7L887.6,1049.7z"/>
		<path fill="#B0AEAF" d="M1092.8,1082.4c0,4.6-3.7,8.4-8.4,8.4H930.2c-4.6,0-8.4-3.7-8.4-8.4l0,0c0-4.6,3.7-8.4,8.4-8.4h154.3
			C1089.1,1074,1092.8,1077.7,1092.8,1082.4L1092.8,1082.4z"/>
		<path fill="#B0AEAF" d="M699.5,1049.7c0,4.6-3.7,8.4-8.4,8.4c-4.6,0-8.4-3.7-8.4-8.4c0-4.6,3.7-8.4,8.4-8.4
			C695.8,1041.3,699.5,1045.1,699.5,1049.7z"/>
		<path fill="#FFFFFF" d="M696.7,212.1c0-14.3,11.6-25.8,25.8-25.8h223c14.3,0,25.8,11.6,25.8,25.8l0,0c0,14.3-11.6,25.8-25.8,25.8
			h-223C708.2,238,696.7,226.4,696.7,212.1L696.7,212.1z"/>
		<path fill="#FFFFFF" d="M576.3,212.1c0-14.3,11.6-25.8,25.8-25.8c14.3,0,25.8,11.6,25.8,25.8c0,14.3-11.6,25.8-25.8,25.8
			C587.8,238,576.3,226.4,576.3,212.1z"/>
		<path fill="#FFFFFF" d="M892.8,314.9c0,10.1,8.2,18.3,18.4,18.3h99.7c10.1,0,18.3-8.2,18.3-18.3l0,0c0-10.1-8.2-18.3-18.3-18.3
			h-99.7C901.1,296.5,892.8,304.7,892.8,314.9L892.8,314.9z"/>
		<path fill="#FFFFFF" d="M1092.8,622.6c0,10.1,8.2,18.3,18.4,18.3h99.7c10.1,0,18.3-8.2,18.3-18.3l0,0c0-10.1-8.2-18.3-18.3-18.3
			h-99.7C1101,604.2,1092.8,612.4,1092.8,622.6L1092.8,622.6z"/>
		<path fill="#FFFFFF" d="M342.8,639c0,9.8-8,17.8-17.8,17.8H185.1c-9.9,0-17.8-8-17.8-17.8l0,0c0-9.8,8-17.8,17.8-17.8h139.9
			C334.8,621.2,342.8,629.2,342.8,639L342.8,639z"/>
		<path fill="#00917A" d="M1248.7,985.7c0-3.5-2.8-6.3-6.3-6.3H960.1c-3.5,0-6.3,2.8-6.3,6.3l0,0c0,3.5,2.8,6.3,6.3,6.3h282.2
			C1245.8,992,1248.7,989.2,1248.7,985.7L1248.7,985.7z"/>
		<g>
			<rect x="984.5" y="891.7" fill="#EBEBEB" width="236.6" height="13.6"/>
			<rect x="1208.9" y="891.7" fill="#D6D6D6" width="3" height="13.6"/>
			<rect x="1085.6" y="891.7" fill="#D6D6D6" width="3" height="13.6"/>
			<rect x="1044.5" y="891.7" fill="#D6D6D6" width="3" height="13.6"/>
			<rect x="1003.4" y="891.7" fill="#D6D6D6" width="3" height="13.6"/>
			<rect x="984.5" y="953.9" fill="#EBEBEB" width="236.6" height="13.6"/>
			<rect x="1208.9" y="953.9" fill="#D6D6D6" width="3" height="13.6"/>
			<rect x="1085.6" y="953.9" fill="#D6D6D6" width="3" height="13.6"/>
			<rect x="1044.5" y="953.9" fill="#D6D6D6" width="3" height="13.6"/>
			<rect x="1003.4" y="953.9" fill="#D6D6D6" width="3" height="13.6"/>
			<g>
				<polygon fill="#EBEBEB" points="1224.4,889.6 1224.4,985.6 1211.9,985.6 1211.9,872.9 1212.5,872.3 				"/>
				<polygon fill="#FFFFFF" points="1212.5,872.3 1224.4,861.2 1236.9,872.9 1236.9,985.6 1224.4,985.6 1224.4,889.6 				"/>
			</g>
			<g>
				<polygon fill="#EBEBEB" points="1101.1,889.6 1101.1,985.6 1088.6,985.6 1088.6,872.9 1089.2,872.3 				"/>
				<polygon fill="#FFFFFF" points="1089.2,872.3 1101.1,861.2 1113.6,872.9 1113.6,985.6 1101.1,985.6 1101.1,889.6 				"/>
			</g>
			<g>
				<polygon fill="#EBEBEB" points="1060,889.6 1060,985.6 1047.5,985.6 1047.5,872.9 1048.1,872.3 				"/>
				<polygon fill="#FFFFFF" points="1048.1,872.3 1060,861.2 1072.5,872.9 1072.5,985.6 1060,985.6 1060,889.6 				"/>
			</g>
			<rect x="1126.7" y="891.7" fill="#D6D6D6" width="3" height="13.6"/>
			<rect x="1126.7" y="953.9" fill="#D6D6D6" width="3" height="13.6"/>
			<g>
				<polygon fill="#EBEBEB" points="1142.2,889.6 1142.2,985.6 1129.7,985.6 1129.7,872.9 1130.3,872.3 				"/>
				<polygon fill="#FFFFFF" points="1130.3,872.3 1142.2,861.2 1154.7,872.9 1154.7,985.6 1142.2,985.6 1142.2,889.6 				"/>
			</g>
			<rect x="1167.8" y="891.7" fill="#D6D6D6" width="3" height="13.6"/>
			<rect x="1167.8" y="953.9" fill="#D6D6D6" width="3" height="13.6"/>
			<g>
				<polygon fill="#EBEBEB" points="1183.3,889.6 1183.3,985.6 1170.8,985.6 1170.8,872.9 1171.4,872.3 				"/>
				<polygon fill="#FFFFFF" points="1171.4,872.3 1183.3,861.2 1195.8,872.9 1195.8,985.6 1183.3,985.6 1183.3,889.6 				"/>
			</g>
			<g>
				<polygon fill="#EBEBEB" points="1018.9,889.6 1018.9,985.6 1006.4,985.6 1006.4,872.9 1007,872.3 				"/>
				<polygon fill="#FFFFFF" points="1007,872.3 1018.9,861.2 1031.4,872.9 1031.4,985.6 1018.9,985.6 1018.9,889.6 				"/>
			</g>
			<g>
				<polygon fill="#EBEBEB" points="977.8,889.6 977.8,985.6 965.3,985.6 965.3,872.9 965.9,872.3 				"/>
				<polygon fill="#FFFFFF" points="965.9,872.3 977.8,861.2 990.3,872.9 990.3,985.6 977.8,985.6 977.8,889.6 				"/>
			</g>
		</g>
		<path fill="#00917A" d="M446.3,985.7c0-3.5-2.8-6.3-6.3-6.3H157.8c-3.5,0-6.3,2.8-6.3,6.3l0,0c0,3.5,2.8,6.3,6.3,6.3H440
			C443.5,992,446.3,989.2,446.3,985.7L446.3,985.7z"/>
		<g>
			<rect x="182.2" y="891.7" fill="#EBEBEB" width="236.6" height="13.6"/>
			<rect x="406.5" y="891.7" fill="#D6D6D6" width="3" height="13.6"/>
			<rect x="283.2" y="891.7" fill="#D6D6D6" width="3" height="13.6"/>
			<rect x="242.1" y="891.7" fill="#D6D6D6" width="3" height="13.6"/>
			<rect x="201" y="891.7" fill="#D6D6D6" width="3" height="13.6"/>
			<rect x="182.2" y="953.9" fill="#EBEBEB" width="236.6" height="13.6"/>
			<rect x="406.5" y="953.9" fill="#D6D6D6" width="3" height="13.6"/>
			<rect x="283.2" y="953.9" fill="#D6D6D6" width="3" height="13.6"/>
			<rect x="242.1" y="953.9" fill="#D6D6D6" width="3" height="13.6"/>
			<rect x="201" y="953.9" fill="#D6D6D6" width="3" height="13.6"/>
			<g>
				<polygon fill="#EBEBEB" points="422,889.6 422,985.6 409.5,985.6 409.5,872.9 410.1,872.3 				"/>
				<polygon fill="#FFFFFF" points="410.1,872.3 422,861.2 434.5,872.9 434.5,985.6 422,985.6 422,889.6 				"/>
			</g>
			<g>
				<polygon fill="#EBEBEB" points="298.7,889.6 298.7,985.6 286.2,985.6 286.2,872.9 286.8,872.3 				"/>
				<polygon fill="#FFFFFF" points="286.8,872.3 298.7,861.2 311.2,872.9 311.2,985.6 298.7,985.6 298.7,889.6 				"/>
			</g>
			<g>
				<polygon fill="#EBEBEB" points="257.6,889.6 257.6,985.6 245.1,985.6 245.1,872.9 245.7,872.3 				"/>
				<polygon fill="#FFFFFF" points="245.7,872.3 257.6,861.2 270.1,872.9 270.1,985.6 257.6,985.6 257.6,889.6 				"/>
			</g>
			<rect x="324.3" y="891.7" fill="#D6D6D6" width="3" height="13.6"/>
			<rect x="324.3" y="953.9" fill="#D6D6D6" width="3" height="13.6"/>
			<g>
				<polygon fill="#EBEBEB" points="339.8,889.6 339.8,985.6 327.3,985.6 327.3,872.9 327.9,872.3 				"/>
				<polygon fill="#FFFFFF" points="327.9,872.3 339.8,861.2 352.3,872.9 352.3,985.6 339.8,985.6 339.8,889.6 				"/>
			</g>
			<rect x="365.4" y="891.7" fill="#D6D6D6" width="3" height="13.6"/>
			<rect x="365.4" y="953.9" fill="#D6D6D6" width="3" height="13.6"/>
			<g>
				<polygon fill="#EBEBEB" points="380.9,889.6 380.9,985.6 368.4,985.6 368.4,872.9 369,872.3 				"/>
				<polygon fill="#FFFFFF" points="369,872.3 380.9,861.2 393.4,872.9 393.4,985.6 380.9,985.6 380.9,889.6 				"/>
			</g>
			<g>
				<polygon fill="#EBEBEB" points="216.5,889.6 216.5,985.6 204,985.6 204,872.9 204.6,872.3 				"/>
				<polygon fill="#FFFFFF" points="204.6,872.3 216.5,861.2 229,872.9 229,985.6 216.5,985.6 216.5,889.6 				"/>
			</g>
			<g>
				<polygon fill="#EBEBEB" points="175.4,889.6 175.4,985.6 163,985.6 163,872.9 163.5,872.3 				"/>
				<polygon fill="#FFFFFF" points="163.5,872.3 175.4,861.2 187.9,872.9 187.9,985.6 175.4,985.6 175.4,889.6 				"/>
			</g>
		</g>
	</g>
</g>
</svg>
